<?xml version="1.0" standalone="no"?>
<!DOCTYPE svg PUBLIC "-//W3C//DTD SVG 20010904//EN"
 "http://www.w3.org/TR/2001/REC-SVG-20010904/DTD/svg10.dtd">
<svg version="1.0" xmlns="http://www.w3.org/2000/svg"
 width="140.000000pt" height="140.000000pt" viewBox="0 0 140.000000 140.000000"
 preserveAspectRatio="xMidYMid meet">
<metadata>
Created by potrace 1.16, written by Peter Selinger 2001-2019
</metadata>
<g transform="translate(0.000000,140.000000) scale(0.100000,-0.100000)"
fill="#000000" stroke="none">
<path d="M610 1390 c0 -18 -54 -39 -74 -28 -23 13 -74 3 -99 -19 -13 -13 -40
-18 -95 -21 -130 -5 -140 -7 -172 -31 -25 -18 -31 -29 -27 -48 4 -20 1 -24
-17 -21 -16 2 -26 -7 -43 -44 -12 -26 -24 -63 -27 -82 -8 -47 -27 -86 -42 -86
-10 0 -13 -68 -14 -329 0 -181 2 -348 6 -370 6 -36 12 -43 52 -62 40 -20 49
-21 76 -10 50 21 68 19 72 -8 3 -13 -1 -30 -7 -37 -8 -10 -8 -14 0 -14 6 0 17
-12 25 -27 32 -63 51 -75 118 -77 35 -1 71 -6 82 -11 14 -6 17 -4 14 11 -3 10
2 33 11 49 19 38 16 154 -4 174 -11 12 -17 12 -29 1 -13 -10 -16 -10 -16 1 -1
11 -3 10 -13 -2 -7 -9 -18 -14 -24 -12 -7 3 -13 0 -13 -5 0 -6 -13 -4 -30 4
-16 9 -30 20 -30 25 0 6 -4 7 -10 4 -10 -6 -25 21 -34 67 -4 19 -13 28 -25 28
-10 0 -24 6 -30 14 -11 13 -31 101 -36 156 -1 14 -7 36 -15 49 -11 22 -10 27
10 43 12 10 33 18 47 18 28 0 123 67 150 106 10 14 26 35 36 46 15 16 17 25 8
49 -9 28 2 43 12 17 4 -8 9 -4 13 10 5 18 9 21 16 10 12 -16 6 7 -20 81 -11
29 -17 63 -13 75 4 17 7 13 12 -19 6 -39 6 -39 8 -7 1 23 5 31 13 26 8 -5 9
-2 4 12 -4 10 -4 15 0 11 4 -4 14 -1 22 6 13 10 15 6 9 -40 -3 -29 -3 -55 2
-57 4 -3 8 10 8 29 1 37 9 55 24 55 6 0 9 -16 8 -34 -5 -49 7 -55 15 -8 3 22
13 45 21 52 16 13 72 24 60 12 -4 -4 -12 -7 -18 -7 -7 -1 -11 -7 -9 -14 1 -7
-2 -10 -7 -7 -14 9 -30 -44 -28 -92 2 -56 21 -48 25 10 2 34 10 51 30 69 14
13 21 17 14 8 -13 -17 -28 -98 -16 -86 4 3 7 14 8 24 4 47 47 103 99 130 56
29 77 35 77 24 0 -4 -6 -13 -12 -20 -10 -11 -10 -13 0 -7 9 5 12 -5 13 -36 l2
-43 6 47 c8 56 18 70 19 28 0 -17 6 -47 12 -66 7 -19 9 -46 6 -60 -5 -19 -3
-24 5 -18 55 34 274 -32 321 -96 26 -36 40 -129 22 -154 -16 -23 -9 -90 12
-121 17 -23 18 -35 3 -35 -5 0 -7 5 -3 12 4 7 3 8 -4 4 -7 -4 -12 -18 -12 -30
0 -13 -7 -43 -15 -66 -17 -49 -17 -50 -7 -50 11 0 32 51 26 64 -3 6 2 2 10 -8
16 -19 16 -19 16 2 0 14 6 22 18 22 15 0 15 -2 2 -11 -13 -9 -13 -10 0 -6 8 2
16 16 18 30 4 32 18 35 27 6 10 -29 -5 -120 -17 -113 -6 4 -8 1 -6 -7 7 -18
-10 -51 -22 -44 -6 4 -7 -1 -3 -11 4 -12 3 -15 -5 -10 -8 4 -12 0 -12 -11 -1
-17 -1 -17 -11 0 -6 9 -7 27 -4 40 6 21 6 21 -9 3 -16 -19 -16 -19 -17 5 -1
22 -2 21 -9 -6 -6 -22 -8 -25 -10 -10 -1 11 -2 26 -1 33 3 22 -8 13 -35 -31
-30 -46 -159 -177 -175 -177 -6 0 -9 -8 -7 -17 2 -10 -3 -24 -12 -31 -12 -10
-10 -10 14 0 15 7 23 14 16 16 -7 3 -2 11 12 20 13 9 28 15 33 14 6 -2 7 0 3
3 -9 10 9 45 24 45 6 0 5 -6 -3 -17 -7 -10 -1 -7 14 6 15 14 23 27 18 30 -5 3
-3 11 4 18 10 10 15 9 19 -4 4 -10 -4 -28 -21 -47 l-28 -31 33 29 c17 17 31
37 30 45 -2 9 3 15 10 14 6 -2 12 2 12 9 0 6 3 9 6 6 9 -9 -21 -60 -53 -89
-34 -33 -143 -88 -160 -82 -7 3 -13 -1 -13 -7 0 -7 -9 -23 -19 -36 -24 -30
-38 -14 -16 19 8 13 12 26 9 30 -4 4 6 11 21 17 15 6 26 13 23 15 -2 2 -34 -6
-72 -19 -49 -17 -77 -35 -105 -65 -21 -22 -34 -41 -29 -41 5 0 7 -4 4 -9 -3
-5 1 -12 9 -15 9 -3 18 1 21 9 9 21 22 18 29 -6 6 -17 9 -19 16 -8 5 8 9 9 9
3 0 -13 57 -17 123 -8 32 4 45 10 40 17 -4 7 -1 7 9 -1 12 -10 17 -10 20 -1 3
9 12 10 36 1 17 -6 34 -7 36 -3 3 4 19 6 36 3 25 -4 30 -1 30 17 0 15 6 21 21
21 11 0 17 -4 14 -10 -9 -15 4 -12 21 5 9 8 12 19 9 25 -3 5 1 10 9 10 9 0 16
5 16 10 0 6 9 10 21 10 14 0 19 5 16 14 -4 9 2 17 14 21 10 4 19 13 19 20 0 8
8 19 18 25 14 9 12 10 -13 7 -16 -2 -39 -8 -50 -12 l-20 -8 20 17 c12 9 14 14
5 11 -27 -9 -40 8 -31 40 7 23 10 25 11 10 1 -11 2 -23 1 -28 0 -4 3 -7 8 -7
6 0 11 14 13 31 2 23 10 34 27 41 21 7 22 6 11 -7 -15 -18 1 -20 18 -3 9 9 12
8 12 -4 0 -9 -6 -19 -12 -21 -7 -3 -3 -6 8 -6 23 -1 38 21 25 35 -16 17 -21
62 -8 67 7 3 5 6 -5 6 -23 1 -23 10 0 28 10 8 11 11 2 7 -12 -6 -13 -5 -3 7 9
12 10 24 1 52 -6 20 -14 37 -18 37 -3 0 -5 12 -4 28 0 17 7 28 19 30 14 3 16
10 10 40 -4 21 -7 46 -6 57 0 11 -7 27 -16 37 -11 13 -14 28 -9 58 4 27 2 48
-8 63 -7 12 -16 37 -20 55 -5 30 0 37 25 34 8 -1 9 50 1 62 -3 5 -5 28 -5 50
0 23 -4 47 -10 54 -5 7 -7 15 -4 18 7 7 33 -16 34 -31 1 -5 7 -11 13 -13 9 -3
9 1 1 17 -8 14 -9 27 -2 40 7 12 7 30 1 52 -5 18 -7 35 -5 38 3 2 5 1 5 -4 0
-4 10 5 23 21 12 16 21 31 20 35 -1 3 9 12 22 19 21 11 25 21 25 62 l0 48
-395 0 c-250 0 -395 -4 -395 -10z"/>
</g>
</svg>
